<?xml version="1.0" encoding="utf-8"?>
<svg width="22" height="22" viewBox="0 0 22 22" fill="none" xmlns="http://www.w3.org/2000/svg"><g clip-path="url(#account_clip)"><path fill-rule="evenodd" clip-rule="evenodd" d="M20.6443 7.46033C21.0692 10.204 19.2384 12.7344 16.6184 13.1588C13.9983 13.5831 11.4924 11.755 11.0674 9.01137C10.6425 6.26769 12.4733 3.73728 15.0933 3.31294C17.7134 2.88861 20.2193 4.71665 20.6443 7.46033ZM21.8782 7.26049C22.405 10.6616 20.1357 13.8554 16.8097 14.394C16.6848 14.4143 16.5602 14.4304 16.436 14.4427C15.5461 16.0055 14.0018 17.1615 12.1188 17.4664C11.9318 17.4967 11.7454 17.518 11.5601 17.5305C10.6455 19.4128 8.82276 20.7782 6.62616 20.9756C3.2716 21.2772 0.315418 18.7407 0.0233436 15.3103C-0.26873 11.8798 2.21391 8.85434 5.56847 8.55276C5.61231 8.54882 5.65609 8.54536 5.69979 8.54238C6.54767 6.79435 8.1829 5.47857 10.2111 5.15009C10.336 5.12986 10.4606 5.11367 10.5847 5.10141C11.4747 3.53861 13.019 2.38264 14.902 2.07767C18.228 1.539 21.3514 3.85942 21.8782 7.26049ZM10.0076 6.46654C9.75718 7.32988 9.68656 8.26248 9.83351 9.21121C10.2611 11.9717 12.3992 14.0203 14.9679 14.406C14.2368 15.3539 13.171 16.0298 11.9275 16.2312C9.30744 16.6555 6.80151 14.8275 6.37653 12.0838C5.97325 9.48014 7.6014 7.06855 10.0076 6.46654ZM1.26832 15.1983C1.04593 12.5863 2.8141 10.3076 5.23293 9.85889C5.05226 10.6308 5.01364 11.451 5.14261 12.2836C5.56449 15.0073 7.65165 17.038 10.1746 17.4621C9.38693 18.7171 8.06282 19.5915 6.52012 19.7302C3.87878 19.9676 1.50404 17.9669 1.26832 15.1983Z" fill="#6f6e84"></path></g><defs><clipPath id="account_clip"><rect width="22" height="22" fill="white"></rect></clipPath></defs></svg>