<?xml version="1.0" encoding="utf-8"?>
<svg width="26" height="21" viewBox="0 0 26 21" fill="none" xmlns="http://www.w3.org/2000/svg"><path d="M3.25 15.5C3.25 15.9142 3.58579 16.25 4 16.25C4.41421 16.25 4.75 15.9142 4.75 15.5H3.25ZM4.75 9.5C4.75 9.08579 4.41421 8.75 4 8.75C3.58579 8.75 3.25 9.08579 3.25 9.5H4.75ZM6.25 13.5C6.25 13.9142 6.58579 14.25 7 14.25C7.41421 14.25 7.75 13.9142 7.75 13.5H6.25ZM7.75 7.5C7.75 7.08579 7.41421 6.75 7 6.75C6.58579 6.75 6.25 7.08579 6.25 7.5H7.75ZM9.25 11.5C9.25 11.9142 9.58579 12.25 10 12.25C10.4142 12.25 10.75 11.9142 10.75 11.5H9.25ZM10.75 5.5C10.75 5.08579 10.4142 4.75 10 4.75C9.58579 4.75 9.25 5.08579 9.25 5.5H10.75ZM12.25 13.5C12.25 13.9142 12.5858 14.25 13 14.25C13.4142 14.25 13.75 13.9142 13.75 13.5H12.25ZM13.75 7.5C13.75 7.08579 13.4142 6.75 13 6.75C12.5858 6.75 12.25 7.08579 12.25 7.5H13.75ZM15.25 15.5C15.25 15.9142 15.5858 16.25 16 16.25C16.4142 16.25 16.75 15.9142 16.75 15.5H15.25ZM16.75 9.5C16.75 9.08579 16.4142 8.75 16 8.75C15.5858 8.75 15.25 9.08579 15.25 9.5H16.75ZM18.25 13.5C18.25 13.9142 18.5858 14.25 19 14.25C19.4142 14.25 19.75 13.9142 19.75 13.5H18.25ZM19.75 7.5C19.75 7.08579 19.4142 6.75 19 6.75C18.5858 6.75 18.25 7.08579 18.25 7.5H19.75ZM21.25 10.5C21.25 10.9142 21.5858 11.25 22 11.25C22.4142 11.25 22.75 10.9142 22.75 10.5H21.25ZM22.75 4.5C22.75 4.08579 22.4142 3.75 22 3.75C21.5858 3.75 21.25 4.08579 21.25 4.5H22.75ZM3 2.25H23V0.75H3V2.25ZM24.25 3.5V17.5H25.75V3.5H24.25ZM23 18.75H3V20.25H23V18.75ZM1.75 17.5V3.5H0.25V17.5H1.75ZM3 18.75C2.30964 18.75 1.75 18.1904 1.75 17.5H0.25C0.25 19.0188 1.48122 20.25 3 20.25V18.75ZM24.25 17.5C24.25 18.1904 23.6904 18.75 23 18.75V20.25C24.5188 20.25 25.75 19.0188 25.75 17.5H24.25ZM23 2.25C23.6904 2.25 24.25 2.80964 24.25 3.5H25.75C25.75 1.98122 24.5188 0.75 23 0.75V2.25ZM3 0.75C1.48122 0.75 0.25 1.98122 0.25 3.5H1.75C1.75 2.80964 2.30964 2.25 3 2.25V0.75ZM4.75 15.5V9.5H3.25V15.5H4.75ZM7.75 13.5V7.5H6.25V13.5H7.75ZM10.75 11.5V5.5H9.25V11.5H10.75ZM13.75 13.5V7.5H12.25V13.5H13.75ZM16.75 15.5V9.5H15.25V15.5H16.75ZM19.75 13.5V7.5H18.25V13.5H19.75ZM22.75 10.5V4.5H21.25V10.5H22.75Z" fill="#6f6e84"></path></svg>